<mxfile>
    <diagram id="eZfy59tImp3R4qeZ7hUe" name="第 1 页">
        <mxGraphModel dx="3133" dy="1129" grid="1" gridSize="10" guides="1" tooltips="1" connect="1" arrows="1" fold="1" page="1" pageScale="1" pageWidth="827" pageHeight="1169" math="0" shadow="0">
            <root>
                <mxCell id="0"/>
                <mxCell id="1" parent="0"/>
                <mxCell id="16" value="Activity" style="swimlane;" vertex="1" parent="1">
                    <mxGeometry x="-760" y="70" width="200" height="290" as="geometry">
                        <mxRectangle x="460" y="300" width="130" height="23" as="alternateBounds"/>
                    </mxGeometry>
                </mxCell>
                <mxCell id="17" value="startActivity" style="rounded=0;whiteSpace=wrap;html=1;" vertex="1" parent="16">
                    <mxGeometry x="40" y="50" width="120" height="60" as="geometry"/>
                </mxCell>
                <mxCell id="19" value="startActivityForResult" style="whiteSpace=wrap;html=1;rounded=0;" vertex="1" parent="16">
                    <mxGeometry x="40" y="190" width="120" height="60" as="geometry"/>
                </mxCell>
                <mxCell id="20" value="" style="edgeStyle=orthogonalEdgeStyle;rounded=0;orthogonalLoop=1;jettySize=auto;html=1;" edge="1" parent="16" source="17" target="19">
                    <mxGeometry relative="1" as="geometry"/>
                </mxCell>
                <mxCell id="24" value="" style="edgeStyle=orthogonalEdgeStyle;rounded=0;orthogonalLoop=1;jettySize=auto;html=1;" edge="1" parent="1" source="19" target="23">
                    <mxGeometry relative="1" as="geometry"/>
                </mxCell>
                <mxCell id="22" value="Instrumentation" style="swimlane;" vertex="1" parent="1">
                    <mxGeometry x="-560" y="70" width="290" height="850" as="geometry"/>
                </mxCell>
                <mxCell id="23" value="mInstrumentation.execStartActivity" style="whiteSpace=wrap;html=1;rounded=0;" vertex="1" parent="22">
                    <mxGeometry x="42" y="190" width="206" height="60" as="geometry"/>
                </mxCell>
                <mxCell id="28" value="checkStartActivityResult&lt;br&gt;检查启动结果" style="whiteSpace=wrap;html=1;rounded=0;" vertex="1" parent="22">
                    <mxGeometry x="70" y="330" width="150" height="60" as="geometry"/>
                </mxCell>
                <mxCell id="29" value="2" style="edgeStyle=orthogonalEdgeStyle;rounded=0;orthogonalLoop=1;jettySize=auto;html=1;" edge="1" parent="22" source="23" target="28">
                    <mxGeometry relative="1" as="geometry"/>
                </mxCell>
                <mxCell id="25" value="AMS" style="swimlane;" vertex="1" parent="1">
                    <mxGeometry x="600" y="70" width="360" height="850" as="geometry"/>
                </mxCell>
                <mxCell id="26" value="ActivityManagerNative.getDefault().startActivity" style="whiteSpace=wrap;html=1;rounded=0;" vertex="1" parent="25">
                    <mxGeometry x="40" y="190" width="280" height="60" as="geometry"/>
                </mxCell>
                <mxCell id="27" value="1&lt;br&gt;Binder" style="edgeStyle=orthogonalEdgeStyle;rounded=0;orthogonalLoop=1;jettySize=auto;html=1;" edge="1" parent="1" source="23" target="26">
                    <mxGeometry relative="1" as="geometry"/>
                </mxCell>
                <mxCell id="30" value="startActivityAsUser" style="whiteSpace=wrap;html=1;rounded=0;" vertex="1" parent="1">
                    <mxGeometry x="720" y="400" width="120" height="60" as="geometry"/>
                </mxCell>
                <mxCell id="31" value="" style="edgeStyle=orthogonalEdgeStyle;rounded=0;orthogonalLoop=1;jettySize=auto;html=1;" edge="1" parent="1" source="26" target="30">
                    <mxGeometry relative="1" as="geometry"/>
                </mxCell>
                <mxCell id="34" value="Vertical Container" style="swimlane;" vertex="1" parent="1">
                    <mxGeometry x="960" y="70" width="320" height="850" as="geometry"/>
                </mxCell>
                <mxCell id="35" value="mStackSupervisor.startActivityMayWait" style="whiteSpace=wrap;html=1;rounded=0;" vertex="1" parent="34">
                    <mxGeometry x="45" y="190" width="230" height="60" as="geometry"/>
                </mxCell>
                <mxCell id="36" value="" style="edgeStyle=orthogonalEdgeStyle;rounded=0;orthogonalLoop=1;jettySize=auto;html=1;" edge="1" parent="1" source="26" target="35">
                    <mxGeometry relative="1" as="geometry"/>
                </mxCell>
                <mxCell id="40" value="" style="edgeStyle=orthogonalEdgeStyle;rounded=0;orthogonalLoop=1;jettySize=auto;html=1;" edge="1" parent="1" source="37" target="39">
                    <mxGeometry relative="1" as="geometry"/>
                </mxCell>
                <mxCell id="37" value="startActivityLocked" style="whiteSpace=wrap;html=1;rounded=0;" vertex="1" parent="1">
                    <mxGeometry x="1060" y="400" width="120" height="60" as="geometry"/>
                </mxCell>
                <mxCell id="38" value="" style="edgeStyle=orthogonalEdgeStyle;rounded=0;orthogonalLoop=1;jettySize=auto;html=1;" edge="1" parent="1" source="35" target="37">
                    <mxGeometry relative="1" as="geometry"/>
                </mxCell>
                <mxCell id="44" value="" style="edgeStyle=orthogonalEdgeStyle;rounded=0;orthogonalLoop=1;jettySize=auto;html=1;" edge="1" parent="1" source="39" target="43">
                    <mxGeometry relative="1" as="geometry"/>
                </mxCell>
                <mxCell id="39" value="startActivityUncheckedLocked" style="whiteSpace=wrap;html=1;rounded=0;" vertex="1" parent="1">
                    <mxGeometry x="1060" y="540" width="120" height="60" as="geometry"/>
                </mxCell>
                <mxCell id="45" value="Vertical Container" style="swimlane;" vertex="1" parent="1">
                    <mxGeometry x="1280" y="70" width="200" height="850" as="geometry"/>
                </mxCell>
                <mxCell id="47" value="" style="edgeStyle=orthogonalEdgeStyle;rounded=0;orthogonalLoop=1;jettySize=auto;html=1;" edge="1" parent="45" source="43" target="46">
                    <mxGeometry relative="1" as="geometry"/>
                </mxCell>
                <mxCell id="43" value="resumeTopActivitiesLocked" style="whiteSpace=wrap;html=1;rounded=0;" vertex="1" parent="45">
                    <mxGeometry x="40" y="470" width="120" height="60" as="geometry"/>
                </mxCell>
                <mxCell id="46" value="resumeTopActivityInnerLocked" style="whiteSpace=wrap;html=1;rounded=0;" vertex="1" parent="45">
                    <mxGeometry x="40" y="610" width="120" height="60" as="geometry"/>
                </mxCell>
                <mxCell id="51" value="" style="edgeStyle=orthogonalEdgeStyle;rounded=0;orthogonalLoop=1;jettySize=auto;html=1;" edge="1" parent="1" source="48" target="50">
                    <mxGeometry relative="1" as="geometry"/>
                </mxCell>
                <mxCell id="48" value="startSpecificActivityLocked" style="whiteSpace=wrap;html=1;rounded=0;" vertex="1" parent="1">
                    <mxGeometry x="1060" y="680" width="120" height="60" as="geometry"/>
                </mxCell>
                <mxCell id="49" value="" style="edgeStyle=orthogonalEdgeStyle;rounded=0;orthogonalLoop=1;jettySize=auto;html=1;" edge="1" parent="1" source="46" target="48">
                    <mxGeometry relative="1" as="geometry"/>
                </mxCell>
                <mxCell id="54" value="Binder" style="edgeStyle=orthogonalEdgeStyle;rounded=0;orthogonalLoop=1;jettySize=auto;html=1;" edge="1" parent="1" source="50" target="53">
                    <mxGeometry relative="1" as="geometry"/>
                </mxCell>
                <mxCell id="50" value="realstartActivityLocked" style="whiteSpace=wrap;html=1;rounded=0;" vertex="1" parent="1">
                    <mxGeometry x="1060" y="820" width="120" height="60" as="geometry"/>
                </mxCell>
                <mxCell id="52" value="ApplicationThread" style="swimlane;startSize=23;" vertex="1" parent="1">
                    <mxGeometry x="330" y="70" width="241" height="1110" as="geometry"/>
                </mxCell>
                <mxCell id="53" value="scheduleLaunchActivity" style="whiteSpace=wrap;html=1;rounded=0;" vertex="1" parent="52">
                    <mxGeometry x="60.5" y="750" width="120" height="60" as="geometry"/>
                </mxCell>
                <mxCell id="55" value="sendMessage(H.LAUNCH_ACTIVITY)" style="whiteSpace=wrap;html=1;rounded=0;" vertex="1" parent="52">
                    <mxGeometry x="15.5" y="890" width="210" height="60" as="geometry"/>
                </mxCell>
                <mxCell id="56" value="" style="edgeStyle=orthogonalEdgeStyle;rounded=0;orthogonalLoop=1;jettySize=auto;html=1;" edge="1" parent="52" source="53" target="55">
                    <mxGeometry relative="1" as="geometry"/>
                </mxCell>
                <mxCell id="57" value="H(handle)" style="swimlane;" vertex="1" parent="1">
                    <mxGeometry x="124" y="70" width="207" height="1110" as="geometry"/>
                </mxCell>
                <mxCell id="58" value="sendMessage" style="whiteSpace=wrap;html=1;rounded=0;" vertex="1" parent="57">
                    <mxGeometry x="43.5" y="890" width="120" height="60" as="geometry"/>
                </mxCell>
                <mxCell id="59" value="" style="edgeStyle=orthogonalEdgeStyle;rounded=0;orthogonalLoop=1;jettySize=auto;html=1;" edge="1" parent="1" source="55" target="58">
                    <mxGeometry relative="1" as="geometry"/>
                </mxCell>
                <mxCell id="64" value="" style="edgeStyle=orthogonalEdgeStyle;rounded=0;orthogonalLoop=1;jettySize=auto;html=1;" edge="1" parent="1" source="60" target="63">
                    <mxGeometry relative="1" as="geometry"/>
                </mxCell>
                <mxCell id="60" value="handleMessage" style="whiteSpace=wrap;html=1;rounded=0;" vertex="1" parent="1">
                    <mxGeometry x="167.5" y="1100" width="120" height="60" as="geometry"/>
                </mxCell>
                <mxCell id="61" value="取出message" style="edgeStyle=orthogonalEdgeStyle;rounded=0;orthogonalLoop=1;jettySize=auto;html=1;" edge="1" parent="1" source="58" target="60">
                    <mxGeometry relative="1" as="geometry"/>
                </mxCell>
                <mxCell id="62" value="ActivityThead" style="swimlane;" vertex="1" parent="1">
                    <mxGeometry x="-140" y="30" width="730" height="1350" as="geometry"/>
                </mxCell>
                <mxCell id="63" value="handleLaunchActivity" style="whiteSpace=wrap;html=1;rounded=0;" vertex="1" parent="62">
                    <mxGeometry x="70" y="1070" width="120" height="60" as="geometry"/>
                </mxCell>
            </root>
        </mxGraphModel>
    </diagram>
</mxfile>